<svg xmlns="http://www.w3.org/2000/svg" width="1150" height="470" viewBox="0 0 1150 470">
<rect width="1150" height="470" fill="#ffffff"/>
<rect x="85" y="65" width="440" height="300" fill="white" stroke="#333" stroke-width="1"/>
<text x="305.00" y="53.00" font-family="Arial" font-size="14" text-anchor="middle">Area-bit and clock budget</text>
<text x="305.00" y="401.00" font-family="Arial" font-size="12" text-anchor="middle">area threshold bits</text>
<text x="40" y="215.0" font-family="Arial" font-size="12" text-anchor="middle" transform="rotate(-90 40,215.0)">spacing std p95 (ns)</text>
<polyline points="120.00,254.84 246.67,258.28 373.33,258.58 500.00,258.62" fill="none" stroke="#1f77b4" stroke-width="2"/>
<circle cx="120.00" cy="254.84" r="3.5" fill="#1f77b4"/>
<circle cx="246.67" cy="258.28" r="3.5" fill="#1f77b4"/>
<circle cx="373.33" cy="258.58" r="3.5" fill="#1f77b4"/>
<circle cx="500.00" cy="258.62" r="3.5" fill="#1f77b4"/>
<text x="520.00" y="95.00" font-family="Arial" font-size="11" text-anchor="end">0.5 ns clock</text>
<polyline points="120.00,246.74 246.67,249.96 373.33,250.27 500.00,250.31" fill="none" stroke="#ff7f0e" stroke-width="2"/>
<circle cx="120.00" cy="246.74" r="3.5" fill="#ff7f0e"/>
<circle cx="246.67" cy="249.96" r="3.5" fill="#ff7f0e"/>
<circle cx="373.33" cy="250.27" r="3.5" fill="#ff7f0e"/>
<circle cx="500.00" cy="250.31" r="3.5" fill="#ff7f0e"/>
<text x="520.00" y="113.00" font-family="Arial" font-size="11" text-anchor="end">1 ns clock</text>
<polyline points="120.00,218.77 246.67,220.72 373.33,220.84 500.00,220.85" fill="none" stroke="#2ca02c" stroke-width="2"/>
<circle cx="120.00" cy="218.77" r="3.5" fill="#2ca02c"/>
<circle cx="246.67" cy="220.72" r="3.5" fill="#2ca02c"/>
<circle cx="373.33" cy="220.84" r="3.5" fill="#2ca02c"/>
<circle cx="500.00" cy="220.85" r="3.5" fill="#2ca02c"/>
<text x="520.00" y="131.00" font-family="Arial" font-size="11" text-anchor="end">2 ns clock</text>
<polyline points="120.00,103.89 246.67,105.10 373.33,105.22 500.00,105.24" fill="none" stroke="#d62728" stroke-width="2"/>
<circle cx="120.00" cy="103.89" r="3.5" fill="#d62728"/>
<circle cx="246.67" cy="105.10" r="3.5" fill="#d62728"/>
<circle cx="373.33" cy="105.22" r="3.5" fill="#d62728"/>
<circle cx="500.00" cy="105.24" r="3.5" fill="#d62728"/>
<text x="520.00" y="149.00" font-family="Arial" font-size="11" text-anchor="end">5 ns clock</text>
<line x1="120.00" y1="340" x2="120.00" y2="345" stroke="#333"/>
<text x="120.00" y="360.00" font-family="Arial" font-size="11" text-anchor="middle">10</text>
<line x1="246.67" y1="340" x2="246.67" y2="345" stroke="#333"/>
<text x="246.67" y="360.00" font-family="Arial" font-size="11" text-anchor="middle">12</text>
<line x1="373.33" y1="340" x2="373.33" y2="345" stroke="#333"/>
<text x="373.33" y="360.00" font-family="Arial" font-size="11" text-anchor="middle">14</text>
<line x1="500.00" y1="340" x2="500.00" y2="345" stroke="#333"/>
<text x="500.00" y="360.00" font-family="Arial" font-size="11" text-anchor="middle">16</text>
<line x1="115" y1="340.00" x2="120" y2="340.00" stroke="#333"/>
<text x="110.00" y="344.00" font-family="Arial" font-size="10" text-anchor="end">0.00</text>
<line x1="115" y1="212.50" x2="120" y2="212.50" stroke="#333"/>
<text x="110.00" y="216.50" font-family="Arial" font-size="10" text-anchor="end">0.96</text>
<line x1="115" y1="85.00" x2="120" y2="85.00" stroke="#333"/>
<text x="110.00" y="89.00" font-family="Arial" font-size="10" text-anchor="end">1.91</text>
<rect x="650" y="65" width="430" height="300" fill="white" stroke="#333" stroke-width="1"/>
<text x="865.00" y="53.00" font-family="Arial" font-size="14" text-anchor="middle">Ton and delay budget</text>
<text x="865.00" y="401.00" font-family="Arial" font-size="12" text-anchor="middle">Ton resolution (ps)</text>
<text x="605" y="215.0" font-family="Arial" font-size="12" text-anchor="middle" transform="rotate(-90 605,215.0)">current rms p95 (mA)</text>
<polyline points="690.00,213.13 730.56,213.00 811.67,212.73 1055.00,211.82" fill="none" stroke="#1f77b4" stroke-width="2"/>
<circle cx="690.00" cy="213.13" r="3.5" fill="#1f77b4"/>
<circle cx="730.56" cy="213.00" r="3.5" fill="#1f77b4"/>
<circle cx="811.67" cy="212.73" r="3.5" fill="#1f77b4"/>
<circle cx="1055.00" cy="211.82" r="3.5" fill="#1f77b4"/>
<text x="1075.00" y="95.00" font-family="Arial" font-size="11" text-anchor="end">0 ns delay sigma</text>
<polyline points="690.00,213.18 730.56,213.11 811.67,212.95 1055.00,212.36" fill="none" stroke="#ff7f0e" stroke-width="2"/>
<circle cx="690.00" cy="213.18" r="3.5" fill="#ff7f0e"/>
<circle cx="730.56" cy="213.11" r="3.5" fill="#ff7f0e"/>
<circle cx="811.67" cy="212.95" r="3.5" fill="#ff7f0e"/>
<circle cx="1055.00" cy="212.36" r="3.5" fill="#ff7f0e"/>
<text x="1075.00" y="113.00" font-family="Arial" font-size="11" text-anchor="end">0.5 ns delay sigma</text>
<polyline points="690.00,213.17 730.56,213.11 811.67,212.94 1055.00,212.34" fill="none" stroke="#2ca02c" stroke-width="2"/>
<circle cx="690.00" cy="213.17" r="3.5" fill="#2ca02c"/>
<circle cx="730.56" cy="213.11" r="3.5" fill="#2ca02c"/>
<circle cx="811.67" cy="212.94" r="3.5" fill="#2ca02c"/>
<circle cx="1055.00" cy="212.34" r="3.5" fill="#2ca02c"/>
<text x="1075.00" y="131.00" font-family="Arial" font-size="11" text-anchor="end">1 ns delay sigma</text>
<polyline points="690.00,213.14 730.56,213.09 811.67,212.93 1055.00,212.33" fill="none" stroke="#d62728" stroke-width="2"/>
<circle cx="690.00" cy="213.14" r="3.5" fill="#d62728"/>
<circle cx="730.56" cy="213.09" r="3.5" fill="#d62728"/>
<circle cx="811.67" cy="212.93" r="3.5" fill="#d62728"/>
<circle cx="1055.00" cy="212.33" r="3.5" fill="#d62728"/>
<text x="1075.00" y="149.00" font-family="Arial" font-size="11" text-anchor="end">2 ns delay sigma</text>
<line x1="690.00" y1="340" x2="690.00" y2="345" stroke="#333"/>
<text x="690.00" y="360.00" font-family="Arial" font-size="11" text-anchor="middle">5</text>
<line x1="730.56" y1="340" x2="730.56" y2="345" stroke="#333"/>
<text x="730.56" y="360.00" font-family="Arial" font-size="11" text-anchor="middle">10</text>
<line x1="811.67" y1="340" x2="811.67" y2="345" stroke="#333"/>
<text x="811.67" y="360.00" font-family="Arial" font-size="11" text-anchor="middle">20</text>
<line x1="1055.00" y1="340" x2="1055.00" y2="345" stroke="#333"/>
<text x="1055.00" y="360.00" font-family="Arial" font-size="11" text-anchor="middle">50</text>
<line x1="685" y1="340.00" x2="690" y2="340.00" stroke="#333"/>
<text x="680.00" y="344.00" font-family="Arial" font-size="10" text-anchor="end">2832.1</text>
<line x1="685" y1="212.50" x2="690" y2="212.50" stroke="#333"/>
<text x="680.00" y="216.50" font-family="Arial" font-size="10" text-anchor="end">2833.5</text>
<line x1="685" y1="85.00" x2="690" y2="85.00" stroke="#333"/>
<text x="680.00" y="89.00" font-family="Arial" font-size="10" text-anchor="end">2834.9</text>
<text x="575.00" y="435.00" font-family="Arial" font-size="13" text-anchor="middle">Fig. 19. PIS-IEK Monte Carlo digital implementation budget.</text>
</svg>