<svg xmlns="http://www.w3.org/2000/svg" width="900" height="360" viewBox="0 0 900 360">
<rect width="100%" height="100%" fill="white"/>
<text x="450" y="25" text-anchor="middle" font-size="17" font-family="Arial">Near-zero cut-load, update=5us: AI delay surrogate</text>
<rect x="55.0" y="55" width="367.5" height="250.0" fill="none" stroke="#333"/>
<text x="238.8" y="41" text-anchor="middle" font-size="13" font-family="Arial">Mean constraint violations</text>
<line x1="55.0" y1="305" x2="55.0" y2="309" stroke="#333"/>
<text x="55.0" y="323" text-anchor="middle" font-size="10" font-family="Arial">0</text>
<line x1="128.5" y1="305" x2="128.5" y2="309" stroke="#333"/>
<text x="128.5" y="323" text-anchor="middle" font-size="10" font-family="Arial">1</text>
<line x1="202.0" y1="305" x2="202.0" y2="309" stroke="#333"/>
<text x="202.0" y="323" text-anchor="middle" font-size="10" font-family="Arial">2</text>
<line x1="275.5" y1="305" x2="275.5" y2="309" stroke="#333"/>
<text x="275.5" y="323" text-anchor="middle" font-size="10" font-family="Arial">3</text>
<line x1="349.0" y1="305" x2="349.0" y2="309" stroke="#333"/>
<text x="349.0" y="323" text-anchor="middle" font-size="10" font-family="Arial">4</text>
<line x1="422.5" y1="305" x2="422.5" y2="309" stroke="#333"/>
<text x="422.5" y="323" text-anchor="middle" font-size="10" font-family="Arial">5</text>
<line x1="51.0" y1="305.0" x2="55.0" y2="305.0" stroke="#333"/>
<text x="47.0" y="308.0" text-anchor="end" font-size="10" font-family="Arial">0</text>
<line x1="51.0" y1="242.5" x2="55.0" y2="242.5" stroke="#333"/>
<text x="47.0" y="245.5" text-anchor="end" font-size="10" font-family="Arial">40</text>
<line x1="51.0" y1="180.0" x2="55.0" y2="180.0" stroke="#333"/>
<text x="47.0" y="183.0" text-anchor="end" font-size="10" font-family="Arial">80</text>
<line x1="51.0" y1="117.5" x2="55.0" y2="117.5" stroke="#333"/>
<text x="47.0" y="120.5" text-anchor="end" font-size="10" font-family="Arial">120</text>
<line x1="51.0" y1="55.0" x2="55.0" y2="55.0" stroke="#333"/>
<text x="47.0" y="58.0" text-anchor="end" font-size="10" font-family="Arial">160</text>
<polyline points="55.0,265.6 91.8,266.1 128.5,266.8 202.0,268.9 422.5,267.4" fill="none" stroke="#1f77b4" stroke-width="2"/>
<circle cx="55.0" cy="265.6" r="3" fill="#1f77b4"/>
<circle cx="91.8" cy="266.1" r="3" fill="#1f77b4"/>
<circle cx="128.5" cy="266.8" r="3" fill="#1f77b4"/>
<circle cx="202.0" cy="268.9" r="3" fill="#1f77b4"/>
<circle cx="422.5" cy="267.4" r="3" fill="#1f77b4"/>
<polyline points="55.0,214.6 91.8,233.9 128.5,214.0 202.0,265.0 422.5,267.0" fill="none" stroke="#2ca02c" stroke-width="2"/>
<circle cx="55.0" cy="214.6" r="3" fill="#2ca02c"/>
<circle cx="91.8" cy="233.9" r="3" fill="#2ca02c"/>
<circle cx="128.5" cy="214.0" r="3" fill="#2ca02c"/>
<circle cx="202.0" cy="265.0" r="3" fill="#2ca02c"/>
<circle cx="422.5" cy="267.0" r="3" fill="#2ca02c"/>
<polyline points="55.0,265.6 91.8,271.2 128.5,278.0 202.0,259.3 422.5,73.5" fill="none" stroke="#d62728" stroke-width="2"/>
<circle cx="55.0" cy="265.6" r="3" fill="#d62728"/>
<circle cx="91.8" cy="271.2" r="3" fill="#d62728"/>
<circle cx="128.5" cy="278.0" r="3" fill="#d62728"/>
<circle cx="202.0" cy="259.3" r="3" fill="#d62728"/>
<circle cx="422.5" cy="73.5" r="3" fill="#d62728"/>
<rect x="477.5" y="55" width="367.5" height="250.0" fill="none" stroke="#333"/>
<text x="661.2" y="41" text-anchor="middle" font-size="13" font-family="Arial">Tail phase mean (ns)</text>
<line x1="477.5" y1="305" x2="477.5" y2="309" stroke="#333"/>
<text x="477.5" y="323" text-anchor="middle" font-size="10" font-family="Arial">0</text>
<line x1="551.0" y1="305" x2="551.0" y2="309" stroke="#333"/>
<text x="551.0" y="323" text-anchor="middle" font-size="10" font-family="Arial">1</text>
<line x1="624.5" y1="305" x2="624.5" y2="309" stroke="#333"/>
<text x="624.5" y="323" text-anchor="middle" font-size="10" font-family="Arial">2</text>
<line x1="698.0" y1="305" x2="698.0" y2="309" stroke="#333"/>
<text x="698.0" y="323" text-anchor="middle" font-size="10" font-family="Arial">3</text>
<line x1="771.5" y1="305" x2="771.5" y2="309" stroke="#333"/>
<text x="771.5" y="323" text-anchor="middle" font-size="10" font-family="Arial">4</text>
<line x1="845.0" y1="305" x2="845.0" y2="309" stroke="#333"/>
<text x="845.0" y="323" text-anchor="middle" font-size="10" font-family="Arial">5</text>
<line x1="473.5" y1="305.0" x2="477.5" y2="305.0" stroke="#333"/>
<text x="469.5" y="308.0" text-anchor="end" font-size="10" font-family="Arial">0</text>
<line x1="473.5" y1="242.5" x2="477.5" y2="242.5" stroke="#333"/>
<text x="469.5" y="245.5" text-anchor="end" font-size="10" font-family="Arial">16</text>
<line x1="473.5" y1="180.0" x2="477.5" y2="180.0" stroke="#333"/>
<text x="469.5" y="183.0" text-anchor="end" font-size="10" font-family="Arial">33</text>
<line x1="473.5" y1="117.5" x2="477.5" y2="117.5" stroke="#333"/>
<text x="469.5" y="120.5" text-anchor="end" font-size="10" font-family="Arial">49</text>
<line x1="473.5" y1="55.0" x2="477.5" y2="55.0" stroke="#333"/>
<text x="469.5" y="58.0" text-anchor="end" font-size="10" font-family="Arial">65</text>
<polyline points="477.5,257.2 514.2,252.0 551.0,253.3 624.5,261.1 845.0,260.9" fill="none" stroke="#1f77b4" stroke-width="2"/>
<circle cx="477.5" cy="257.2" r="3" fill="#1f77b4"/>
<circle cx="514.2" cy="252.0" r="3" fill="#1f77b4"/>
<circle cx="551.0" cy="253.3" r="3" fill="#1f77b4"/>
<circle cx="624.5" cy="261.1" r="3" fill="#1f77b4"/>
<circle cx="845.0" cy="260.9" r="3" fill="#1f77b4"/>
<polyline points="477.5,221.4 514.2,231.7 551.0,218.9 624.5,258.6 845.0,253.7" fill="none" stroke="#2ca02c" stroke-width="2"/>
<circle cx="477.5" cy="221.4" r="3" fill="#2ca02c"/>
<circle cx="514.2" cy="231.7" r="3" fill="#2ca02c"/>
<circle cx="551.0" cy="218.9" r="3" fill="#2ca02c"/>
<circle cx="624.5" cy="258.6" r="3" fill="#2ca02c"/>
<circle cx="845.0" cy="253.7" r="3" fill="#2ca02c"/>
<polyline points="477.5,257.2 514.2,259.6 551.0,256.1 624.5,232.5 845.0,73.5" fill="none" stroke="#d62728" stroke-width="2"/>
<circle cx="477.5" cy="257.2" r="3" fill="#d62728"/>
<circle cx="514.2" cy="259.6" r="3" fill="#d62728"/>
<circle cx="551.0" cy="256.1" r="3" fill="#d62728"/>
<circle cx="624.5" cy="232.5" r="3" fill="#d62728"/>
<circle cx="845.0" cy="73.5" r="3" fill="#d62728"/>
<line x1="645" y1="46" x2="669" y2="46" stroke="#d62728" stroke-width="2"/>
<text x="675" y="50" font-size="11" font-family="Arial">zero_delay_trained</text>
<line x1="645" y1="64" x2="669" y2="64" stroke="#1f77b4" stroke-width="2"/>
<text x="675" y="68" font-size="11" font-family="Arial">delay_aware</text>
<line x1="645" y1="82" x2="669" y2="82" stroke="#2ca02c" stroke-width="2"/>
<text x="675" y="86" font-size="11" font-family="Arial">delay_aware_projected</text>
<text x="450.0" y="352" text-anchor="middle" font-size="11" font-family="Arial">AI latency tau_AI (us)</text>
</svg>