<svg xmlns="http://www.w3.org/2000/svg" width="920" height="430" viewBox="0 0 920 430">
<rect width="100%" height="100%" fill="white"/>
<text x="24" y="26" font-size="18" font-family="Arial" font-weight="bold">R022 supervisor mean regret by cross-validation split</text>
<text x="24" y="48" font-size="12" font-family="Arial" fill="#555">Lower is better; regret is predicted-policy objective score minus oracle score.</text>
<text x="24" y="64" font-size="13" font-family="Arial" font-weight="bold" fill="#333">leave_one_tau</text>
<text x="34" y="84" font-size="11" font-family="Arial" fill="#333">zero_delay_objective_table</text>
<rect x="260" y="72" width="107.6" height="16" fill="#3b82f6" opacity="0.82"/>
<text x="373.6" y="84" font-size="11" font-family="Arial" fill="#333">0.316</text>
<text x="34" y="107" font-size="11" font-family="Arial" fill="#333">trained_objective_nearest_tau_table</text>
<rect x="260" y="95" width="103.3" height="16" fill="#3b82f6" opacity="0.82"/>
<text x="369.3" y="107" font-size="11" font-family="Arial" fill="#333">0.304</text>
<text x="34" y="130" font-size="11" font-family="Arial" fill="#333">knn_score_supervisor</text>
<rect x="260" y="118" width="165.8" height="16" fill="#3b82f6" opacity="0.82"/>
<text x="431.8" y="130" font-size="11" font-family="Arial" fill="#333">0.487</text>
<text x="34" y="153" font-size="11" font-family="Arial" fill="#333">ridge_score_supervisor</text>
<rect x="260" y="141" width="141.4" height="16" fill="#3b82f6" opacity="0.82"/>
<text x="407.4" y="153" font-size="11" font-family="Arial" fill="#333">0.416</text>
<text x="34" y="176" font-size="11" font-family="Arial" fill="#333">fixed_40us</text>
<rect x="260" y="164" width="384.8" height="16" fill="#3b82f6" opacity="0.82"/>
<text x="650.8" y="176" font-size="11" font-family="Arial" fill="#333">1.131</text>
<text x="34" y="199" font-size="11" font-family="Arial" fill="#333">fixed_80us</text>
<rect x="260" y="187" width="560.0" height="16" fill="#3b82f6" opacity="0.82"/>
<text x="826.0" y="199" font-size="11" font-family="Arial" fill="#333">1.646</text>
<text x="24" y="220" font-size="13" font-family="Arial" font-weight="bold" fill="#333">leave_one_target</text>
<text x="34" y="240" font-size="11" font-family="Arial" fill="#333">zero_delay_objective_table</text>
<rect x="260" y="228" width="107.6" height="16" fill="#f97316" opacity="0.82"/>
<text x="373.6" y="240" font-size="11" font-family="Arial" fill="#333">0.316</text>
<text x="34" y="263" font-size="11" font-family="Arial" fill="#333">trained_objective_nearest_tau_table</text>
<rect x="260" y="251" width="244.1" height="16" fill="#f97316" opacity="0.82"/>
<text x="510.1" y="263" font-size="11" font-family="Arial" fill="#333">0.718</text>
<text x="34" y="286" font-size="11" font-family="Arial" fill="#333">knn_score_supervisor</text>
<rect x="260" y="274" width="263.9" height="16" fill="#f97316" opacity="0.82"/>
<text x="529.9" y="286" font-size="11" font-family="Arial" fill="#333">0.776</text>
<text x="34" y="309" font-size="11" font-family="Arial" fill="#333">ridge_score_supervisor</text>
<rect x="260" y="297" width="210.9" height="16" fill="#f97316" opacity="0.82"/>
<text x="476.9" y="309" font-size="11" font-family="Arial" fill="#333">0.620</text>
<text x="34" y="332" font-size="11" font-family="Arial" fill="#333">fixed_40us</text>
<rect x="260" y="320" width="384.8" height="16" fill="#f97316" opacity="0.82"/>
<text x="650.8" y="332" font-size="11" font-family="Arial" fill="#333">1.131</text>
<text x="34" y="355" font-size="11" font-family="Arial" fill="#333">fixed_80us</text>
<rect x="260" y="343" width="560.0" height="16" fill="#f97316" opacity="0.82"/>
<text x="826.0" y="355" font-size="11" font-family="Arial" fill="#333">1.646</text>
<line x1="260" y1="52" x2="260" y2="394" stroke="#999" stroke-width="1"/>
</svg>