<svg xmlns="http://www.w3.org/2000/svg" width="920" height="400" viewBox="0 0 920 400">
<rect width="100%" height="100%" fill="white"/>
<text x="460" y="25" text-anchor="middle" font-family="Arial" font-size="17">R029 held-out guarded proxy replay</text>
<line x1="115" y1="308" x2="878" y2="308" stroke="#333"/>
<line x1="115" y1="42" x2="115" y2="308" stroke="#333"/>
<line x1="110" y1="308.0" x2="878" y2="308.0" stroke="#eee"/>
<text x="105" y="312.0" text-anchor="end" font-family="Arial" font-size="11">0.00</text>
<line x1="110" y1="241.5" x2="878" y2="241.5" stroke="#eee"/>
<text x="105" y="245.5" text-anchor="end" font-family="Arial" font-size="11">0.23</text>
<line x1="110" y1="175.0" x2="878" y2="175.0" stroke="#eee"/>
<text x="105" y="179.0" text-anchor="end" font-family="Arial" font-size="11">0.46</text>
<line x1="110" y1="108.5" x2="878" y2="108.5" stroke="#eee"/>
<text x="105" y="112.5" text-anchor="end" font-family="Arial" font-size="11">0.70</text>
<line x1="110" y1="42.0" x2="878" y2="42.0" stroke="#eee"/>
<text x="105" y="46.0" text-anchor="end" font-family="Arial" font-size="11">0.93</text>
<rect x="147.0" y="296.1" width="88.5" height="11.9" fill="#2CA02C"/>
<text x="191.3" y="291.1" text-anchor="middle" font-family="Arial" font-size="11">0.041</text>
<text x="191.3" y="326" text-anchor="end" transform="rotate(-35 191.3,326)" font-family="Arial" font-size="11">guarded candidate</text>
<rect x="299.6" y="278.0" width="88.5" height="30.0" fill="#54A24B"/>
<text x="343.9" y="273.0" text-anchor="middle" font-family="Arial" font-size="11">0.105</text>
<text x="343.9" y="326" text-anchor="end" transform="rotate(-35 343.9,326)" font-family="Arial" font-size="11">fixed probe</text>
<rect x="452.2" y="256.5" width="88.5" height="51.5" fill="#F58518"/>
<text x="496.5" y="251.5" text-anchor="middle" font-family="Arial" font-size="11">0.180</text>
<text x="496.5" y="326" text-anchor="end" transform="rotate(-35 496.5,326)" font-family="Arial" font-size="11">heldout probe</text>
<rect x="604.8" y="238.6" width="88.5" height="69.4" fill="#4C78A8"/>
<text x="649.1" y="233.6" text-anchor="middle" font-family="Arial" font-size="11">0.242</text>
<text x="649.1" y="326" text-anchor="end" transform="rotate(-35 649.1,326)" font-family="Arial" font-size="11">dense anchor</text>
<rect x="757.4" y="76.7" width="88.5" height="231.3" fill="#E45756"/>
<text x="801.7" y="71.7" text-anchor="middle" font-family="Arial" font-size="11">0.806</text>
<text x="801.7" y="326" text-anchor="end" transform="rotate(-35 801.7,326)" font-family="Arial" font-size="11">old proxy failure probe</text>
<text x="26" y="175.0" text-anchor="middle" transform="rotate(-90 26,175.0)" font-family="Arial" font-size="13">Mean switching regret</text>
</svg>