<svg xmlns="http://www.w3.org/2000/svg" width="980" height="520" viewBox="0 0 980 520">
<rect width="100%" height="100%" fill="white"/>
<text x="30" y="35" font-size="20" font-family="Arial" font-weight="bold">R030 refined band policy: offline regret and switching guard evidence</text>
<text x="30" y="58" font-size="12" font-family="Arial" fill="#555">Offline replay is a consistency check; switching evidence remains derived Simulink, not hardware/HIL.</text>
<text x="30" y="92" font-size="13" font-family="Arial">discrete dense long table</text>
<rect x="250" y="70" width="520.0" height="34" fill="#B0B0B0" opacity="0.88"/>
<text x="778.0" y="92" font-size="13" font-family="Arial">0.163</text>
<text x="30" y="144" font-size="13" font-family="Arial">calibrated risk proxy projection</text>
<rect x="250" y="122" width="379.5" height="34" fill="#D95F02" opacity="0.88"/>
<text x="637.5" y="144" font-size="13" font-family="Arial">0.119</text>
<text x="30" y="196" font-size="13" font-family="Arial">r028 switching guarded proxy</text>
<rect x="250" y="174" width="339.8" height="34" fill="#2D7DD2" opacity="0.88"/>
<text x="597.8" y="196" font-size="13" font-family="Arial">0.106</text>
<text x="30" y="248" font-size="13" font-family="Arial">r030 refined band policy</text>
<rect x="250" y="226" width="331.0" height="34" fill="#0B6E4F" opacity="0.88"/>
<text x="589.0" y="248" font-size="13" font-family="Arial">0.104</text>
<text x="30" y="300" font-size="13" font-family="Arial">r028 dense anchor proxy</text>
<rect x="250" y="278" width="318.0" height="34" fill="#73A2C6" opacity="0.88"/>
<text x="576.0" y="300" font-size="13" font-family="Arial">0.099</text>
<text x="30" y="365" font-size="15" font-family="Arial" font-weight="bold">Known guard-context switching regret</text>
<text x="30" y="387" font-size="12" font-family="Arial" fill="#555">R030 selected rows over R027 priority + R029 held-out contexts: mean regret 0.000; dense-anchor mean regret 0.128.</text>
<rect x="30" y="417" width="68" height="32" fill="#0B6E4F" opacity="0.82"/>
<text x="35" y="431" font-size="10" font-family="Arial" fill="white">10A 0us</text>
<text x="35" y="444" font-size="10" font-family="Arial" fill="white">reg 0.000</text>
<rect x="102" y="417" width="68" height="32" fill="#0B6E4F" opacity="0.82"/>
<text x="107" y="431" font-size="10" font-family="Arial" fill="white">10A 0.5us</text>
<text x="107" y="444" font-size="10" font-family="Arial" fill="white">reg 0.000</text>
<rect x="174" y="417" width="68" height="32" fill="#0B6E4F" opacity="0.82"/>
<text x="179" y="431" font-size="10" font-family="Arial" fill="white">10A 1us</text>
<text x="179" y="444" font-size="10" font-family="Arial" fill="white">reg 0.000</text>
<rect x="246" y="417" width="68" height="32" fill="#0B6E4F" opacity="0.82"/>
<text x="251" y="431" font-size="10" font-family="Arial" fill="white">10A 1.5us</text>
<text x="251" y="444" font-size="10" font-family="Arial" fill="white">reg 0.000</text>
<rect x="318" y="417" width="68" height="32" fill="#0B6E4F" opacity="0.82"/>
<text x="323" y="431" font-size="10" font-family="Arial" fill="white">10A 2us</text>
<text x="323" y="444" font-size="10" font-family="Arial" fill="white">reg 0.000</text>
<rect x="390" y="417" width="68" height="32" fill="#0B6E4F" opacity="0.82"/>
<text x="395" y="431" font-size="10" font-family="Arial" fill="white">10A 2.5us</text>
<text x="395" y="444" font-size="10" font-family="Arial" fill="white">reg 0.000</text>
<rect x="462" y="417" width="68" height="32" fill="#0B6E4F" opacity="0.82"/>
<text x="467" y="431" font-size="10" font-family="Arial" fill="white">10A 3us</text>
<text x="467" y="444" font-size="10" font-family="Arial" fill="white">reg 0.000</text>
<rect x="534" y="417" width="68" height="32" fill="#0B6E4F" opacity="0.82"/>
<text x="539" y="431" font-size="10" font-family="Arial" fill="white">near0A 0us</text>
<text x="539" y="444" font-size="10" font-family="Arial" fill="white">reg 0.000</text>
<rect x="606" y="417" width="68" height="32" fill="#0B6E4F" opacity="0.82"/>
<text x="611" y="431" font-size="10" font-family="Arial" fill="white">near0A 0.25us</text>
<text x="611" y="444" font-size="10" font-family="Arial" fill="white">reg 0.000</text>
<rect x="678" y="417" width="68" height="32" fill="#0B6E4F" opacity="0.82"/>
<text x="683" y="431" font-size="10" font-family="Arial" fill="white">near0A 0.5us</text>
<text x="683" y="444" font-size="10" font-family="Arial" fill="white">reg 0.000</text>
<rect x="750" y="417" width="68" height="32" fill="#0B6E4F" opacity="0.82"/>
<text x="755" y="431" font-size="10" font-family="Arial" fill="white">near0A 1us</text>
<text x="755" y="444" font-size="10" font-family="Arial" fill="white">reg 0.000</text>
<rect x="822" y="417" width="68" height="32" fill="#0B6E4F" opacity="0.82"/>
<text x="827" y="431" font-size="10" font-family="Arial" fill="white">near0A 2us</text>
<text x="827" y="444" font-size="10" font-family="Arial" fill="white">reg 0.000</text>
</svg>