<svg xmlns="http://www.w3.org/2000/svg" width="960" height="540" viewBox="0 0 960 540">
<rect width="100%" height="100%" fill="white"/>
<text x="24" y="28" font-size="18" font-family="Arial" font-weight="bold">R023 continuous T_slew local landscape</text>
<text x="24" y="47" font-size="12" font-family="Arial" fill="#555">Dots: sampled best. Cross: local quadratic candidate. Candidate is not a verified global optimum.</text>
<rect x="64" y="50" width="260" height="118" fill="#fafafa" stroke="#ddd"/>
<text x="72" y="68" font-size="12" font-family="Arial" font-weight="bold">20A / base</text>
<line x1="88" y1="122" x2="300" y2="122" stroke="#bbb"/>
<text x="84" y="140" font-size="10" font-family="Arial" fill="#666">20</text>
<text x="281" y="140" font-size="10" font-family="Arial" fill="#666">120 us</text>
<circle cx="215.2" cy="122" r="5" fill="#2563eb"/>
<line x1="225.6" y1="111" x2="235.6" y2="121" stroke="#111" stroke-width="1.5"/>
<line x1="225.6" y1="121" x2="235.6" y2="111" stroke="#111" stroke-width="1.5"/>
<rect x="88" y="142" width="137.0" height="10" fill="#2563eb" opacity="0.65"/>
<text x="88" y="162" font-size="10" font-family="Arial" fill="#333">sample 80us, cand 87.2us, gain 0.154</text>
<rect x="358" y="50" width="260" height="118" fill="#fafafa" stroke="#ddd"/>
<text x="366" y="68" font-size="12" font-family="Arial" font-weight="bold">20A / score_settle005</text>
<line x1="382" y1="122" x2="594" y2="122" stroke="#bbb"/>
<text x="378" y="140" font-size="10" font-family="Arial" fill="#666">20</text>
<text x="575" y="140" font-size="10" font-family="Arial" fill="#666">120 us</text>
<circle cx="403.2" cy="122" r="5" fill="#059669"/>
<line x1="408.3" y1="111" x2="418.3" y2="121" stroke="#111" stroke-width="1.5"/>
<line x1="408.3" y1="121" x2="418.3" y2="111" stroke="#111" stroke-width="1.5"/>
<rect x="382" y="142" width="211.4" height="10" fill="#059669" opacity="0.65"/>
<text x="382" y="162" font-size="10" font-family="Arial" fill="#333">sample 30us, cand 34.7us, gain 0.238</text>
<rect x="652" y="50" width="260" height="118" fill="#fafafa" stroke="#ddd"/>
<text x="660" y="68" font-size="12" font-family="Arial" font-weight="bold">20A / score_settle010</text>
<line x1="676" y1="122" x2="888" y2="122" stroke="#bbb"/>
<text x="672" y="140" font-size="10" font-family="Arial" fill="#666">20</text>
<text x="869" y="140" font-size="10" font-family="Arial" fill="#666">120 us</text>
<circle cx="697.2" cy="122" r="5" fill="#dc2626"/>
<line x1="702.3" y1="111" x2="712.3" y2="121" stroke="#111" stroke-width="1.5"/>
<line x1="702.3" y1="121" x2="712.3" y2="111" stroke="#111" stroke-width="1.5"/>
<rect x="676" y="142" width="211.4" height="10" fill="#dc2626" opacity="0.65"/>
<text x="676" y="162" font-size="10" font-family="Arial" fill="#333">sample 30us, cand 34.7us, gain 0.238</text>
<rect x="64" y="202" width="260" height="118" fill="#fafafa" stroke="#ddd"/>
<text x="72" y="220" font-size="12" font-family="Arial" font-weight="bold">10A / base</text>
<line x1="88" y1="274" x2="300" y2="274" stroke="#bbb"/>
<text x="84" y="292" font-size="10" font-family="Arial" fill="#666">20</text>
<text x="281" y="292" font-size="10" font-family="Arial" fill="#666">120 us</text>
<circle cx="215.2" cy="274" r="5" fill="#2563eb"/>
<line x1="216.1" y1="263" x2="226.1" y2="273" stroke="#111" stroke-width="1.5"/>
<line x1="216.1" y1="273" x2="226.1" y2="263" stroke="#111" stroke-width="1.5"/>
<rect x="88" y="294" width="8.3" height="10" fill="#2563eb" opacity="0.65"/>
<text x="88" y="314" font-size="10" font-family="Arial" fill="#333">sample 80us, cand 82.8us, gain 0.009</text>
<rect x="358" y="202" width="260" height="118" fill="#fafafa" stroke="#ddd"/>
<text x="366" y="220" font-size="12" font-family="Arial" font-weight="bold">10A / score_settle005</text>
<line x1="382" y1="274" x2="594" y2="274" stroke="#bbb"/>
<text x="378" y="292" font-size="10" font-family="Arial" fill="#666">20</text>
<text x="575" y="292" font-size="10" font-family="Arial" fill="#666">120 us</text>
<circle cx="445.6" cy="274" r="5" fill="#059669"/>
<line x1="434.7" y1="263" x2="444.7" y2="273" stroke="#111" stroke-width="1.5"/>
<line x1="434.7" y1="273" x2="444.7" y2="263" stroke="#111" stroke-width="1.5"/>
<rect x="382" y="294" width="39.0" height="10" fill="#059669" opacity="0.65"/>
<text x="382" y="314" font-size="10" font-family="Arial" fill="#333">sample 50us, cand 47.2us, gain 0.044</text>
<rect x="652" y="202" width="260" height="118" fill="#fafafa" stroke="#ddd"/>
<text x="660" y="220" font-size="12" font-family="Arial" font-weight="bold">10A / score_settle010</text>
<line x1="676" y1="274" x2="888" y2="274" stroke="#bbb"/>
<text x="672" y="292" font-size="10" font-family="Arial" fill="#666">20</text>
<text x="869" y="292" font-size="10" font-family="Arial" fill="#666">120 us</text>
<circle cx="697.2" cy="274" r="5" fill="#dc2626"/>
<line x1="683.4" y1="263" x2="693.4" y2="273" stroke="#111" stroke-width="1.5"/>
<line x1="683.4" y1="273" x2="693.4" y2="263" stroke="#111" stroke-width="1.5"/>
<rect x="676" y="294" width="9.8" height="10" fill="#dc2626" opacity="0.65"/>
<text x="676" y="314" font-size="10" font-family="Arial" fill="#333">sample 30us, cand 25.8us, gain 0.011</text>
<rect x="64" y="354" width="260" height="118" fill="#fafafa" stroke="#ddd"/>
<text x="72" y="372" font-size="12" font-family="Arial" font-weight="bold">near0A / base</text>
<line x1="88" y1="426" x2="300" y2="426" stroke="#bbb"/>
<text x="84" y="444" font-size="10" font-family="Arial" fill="#666">20</text>
<text x="281" y="444" font-size="10" font-family="Arial" fill="#666">120 us</text>
<circle cx="172.8" cy="426" r="5" fill="#2563eb"/>
<line x1="179.9" y1="415" x2="189.9" y2="425" stroke="#111" stroke-width="1.5"/>
<line x1="179.9" y1="425" x2="189.9" y2="415" stroke="#111" stroke-width="1.5"/>
<rect x="88" y="446" width="68.4" height="10" fill="#2563eb" opacity="0.65"/>
<text x="88" y="466" font-size="10" font-family="Arial" fill="#333">sample 60us, cand 65.7us, gain 0.077</text>
<rect x="358" y="354" width="260" height="118" fill="#fafafa" stroke="#ddd"/>
<text x="366" y="372" font-size="12" font-family="Arial" font-weight="bold">near0A / score_settle005</text>
<line x1="382" y1="426" x2="594" y2="426" stroke="#bbb"/>
<text x="378" y="444" font-size="10" font-family="Arial" fill="#666">20</text>
<text x="575" y="444" font-size="10" font-family="Arial" fill="#666">120 us</text>
<circle cx="466.8" cy="426" r="5" fill="#059669"/>
<line x1="456.0" y1="415" x2="466.0" y2="425" stroke="#111" stroke-width="1.5"/>
<line x1="456.0" y1="425" x2="466.0" y2="415" stroke="#111" stroke-width="1.5"/>
<rect x="382" y="446" width="13.5" height="10" fill="#059669" opacity="0.65"/>
<text x="382" y="466" font-size="10" font-family="Arial" fill="#333">sample 60us, cand 57.3us, gain 0.015</text>
<rect x="652" y="354" width="260" height="118" fill="#fafafa" stroke="#ddd"/>
<text x="660" y="372" font-size="12" font-family="Arial" font-weight="bold">near0A / score_settle010</text>
<line x1="676" y1="426" x2="888" y2="426" stroke="#bbb"/>
<text x="672" y="444" font-size="10" font-family="Arial" fill="#666">20</text>
<text x="869" y="444" font-size="10" font-family="Arial" fill="#666">120 us</text>
<circle cx="697.2" cy="426" r="5" fill="#dc2626"/>
<line x1="702.0" y1="415" x2="712.0" y2="425" stroke="#111" stroke-width="1.5"/>
<line x1="702.0" y1="425" x2="712.0" y2="415" stroke="#111" stroke-width="1.5"/>
<rect x="676" y="446" width="212.0" height="10" fill="#dc2626" opacity="0.65"/>
<text x="676" y="466" font-size="10" font-family="Arial" fill="#333">sample 30us, cand 34.6us, gain 0.239</text>
</svg>