<svg xmlns="http://www.w3.org/2000/svg" width="980" height="420" viewBox="0 0 980 420">
<rect width="100%" height="100%" fill="white"/>
<text x="490" y="24" text-anchor="middle" font-family="Arial" font-size="17">R027 priority combined switching regret</text>
<line x1="120" y1="330" x2="940" y2="330" stroke="#333"/>
<line x1="120" y1="40" x2="120" y2="330" stroke="#333"/>
<line x1="115" y1="330.0" x2="940" y2="330.0" stroke="#eee"/>
<text x="110" y="334.0" text-anchor="end" font-family="Arial" font-size="11">0.00</text>
<line x1="115" y1="257.5" x2="940" y2="257.5" stroke="#eee"/>
<text x="110" y="261.5" text-anchor="end" font-family="Arial" font-size="11">0.62</text>
<line x1="115" y1="185.0" x2="940" y2="185.0" stroke="#eee"/>
<text x="110" y="189.0" text-anchor="end" font-family="Arial" font-size="11">1.25</text>
<line x1="115" y1="112.5" x2="940" y2="112.5" stroke="#eee"/>
<text x="110" y="116.5" text-anchor="end" font-family="Arial" font-size="11">1.87</text>
<line x1="115" y1="40.0" x2="940" y2="40.0" stroke="#eee"/>
<text x="110" y="44.0" text-anchor="end" font-family="Arial" font-size="11">2.50</text>
<rect x="150.8" y="327.1" width="75.2" height="2.9" fill="#4C78A8"/>
<text x="188.3" y="322.1" text-anchor="middle" font-family="Arial" font-size="11">0.025</text>
<text x="188.3" y="348" text-anchor="end" transform="rotate(-35 188.3,348)" font-family="Arial" font-size="11">discrete dense long table</text>
<rect x="287.4" y="327.1" width="75.2" height="2.9" fill="#72B7B2"/>
<text x="325.0" y="322.1" text-anchor="middle" font-family="Arial" font-size="11">0.025</text>
<text x="325.0" y="348" text-anchor="end" transform="rotate(-35 325.0,348)" font-family="Arial" font-size="11">posterior mode aware projection</text>
<rect x="424.1" y="300.2" width="75.2" height="29.8" fill="#F58518"/>
<text x="461.7" y="295.2" text-anchor="middle" font-family="Arial" font-size="11">0.257</text>
<text x="461.7" y="348" text-anchor="end" transform="rotate(-35 461.7,348)" font-family="Arial" font-size="11">near opt band clipping</text>
<rect x="560.8" y="297.1" width="75.2" height="32.9" fill="#E45756"/>
<text x="598.3" y="292.1" text-anchor="middle" font-family="Arial" font-size="11">0.283</text>
<text x="598.3" y="348" text-anchor="end" transform="rotate(-35 598.3,348)" font-family="Arial" font-size="11">calibrated risk proxy projection</text>
<rect x="697.4" y="217.2" width="75.2" height="112.8" fill="#54A24B"/>
<text x="735.0" y="212.2" text-anchor="middle" font-family="Arial" font-size="11">0.971</text>
<text x="735.0" y="348" text-anchor="end" transform="rotate(-35 735.0,348)" font-family="Arial" font-size="11">fixed 40us precommitted</text>
<rect x="834.1" y="77.8" width="75.2" height="252.2" fill="#B279A2"/>
<text x="871.7" y="72.8" text-anchor="middle" font-family="Arial" font-size="11">2.171</text>
<text x="871.7" y="348" text-anchor="end" transform="rotate(-35 871.7,348)" font-family="Arial" font-size="11">fixed 80us precommitted</text>
<text x="26" y="185.0" text-anchor="middle" transform="rotate(-90 26,185.0)" font-family="Arial" font-size="13">Mean switching regret</text>
</svg>