<svg xmlns="http://www.w3.org/2000/svg" width="1040" height="430" viewBox="0 0 1040 430">
<rect width="100%" height="100%" fill="white"/>
<text x="520" y="25" text-anchor="middle" font-family="Arial" font-size="17">R028 switching-calibrated proxy replay</text>
<line x1="120" y1="330" x2="998" y2="330" stroke="#333"/>
<line x1="120" y1="42" x2="120" y2="330" stroke="#333"/>
<line x1="115" y1="330.0" x2="998" y2="330.0" stroke="#eee"/>
<text x="110" y="334.0" text-anchor="end" font-family="Arial" font-size="11">0.00</text>
<line x1="115" y1="258.0" x2="998" y2="258.0" stroke="#eee"/>
<text x="110" y="262.0" text-anchor="end" font-family="Arial" font-size="11">0.62</text>
<line x1="115" y1="186.0" x2="998" y2="186.0" stroke="#eee"/>
<text x="110" y="190.0" text-anchor="end" font-family="Arial" font-size="11">1.25</text>
<line x1="115" y1="114.0" x2="998" y2="114.0" stroke="#eee"/>
<text x="110" y="118.0" text-anchor="end" font-family="Arial" font-size="11">1.87</text>
<line x1="115" y1="42.0" x2="998" y2="42.0" stroke="#eee"/>
<text x="110" y="46.0" text-anchor="end" font-family="Arial" font-size="11">2.50</text>
<rect x="148.2" y="330.0" width="69.0" height="0.0" fill="#2CA02C"/>
<text x="182.7" y="325.0" text-anchor="middle" font-family="Arial" font-size="11">0.000</text>
<text x="182.7" y="348" text-anchor="end" transform="rotate(-35 182.7,348)" font-family="Arial" font-size="11">r028 switching guarded proxy</text>
<rect x="273.7" y="327.1" width="69.0" height="2.9" fill="#4C78A8"/>
<text x="308.1" y="322.1" text-anchor="middle" font-family="Arial" font-size="11">0.025</text>
<text x="308.1" y="348" text-anchor="end" transform="rotate(-35 308.1,348)" font-family="Arial" font-size="11">discrete dense long table</text>
<rect x="399.1" y="327.1" width="69.0" height="2.9" fill="#17BECF"/>
<text x="433.6" y="322.1" text-anchor="middle" font-family="Arial" font-size="11">0.025</text>
<text x="433.6" y="348" text-anchor="end" transform="rotate(-35 433.6,348)" font-family="Arial" font-size="11">r028 dense anchor proxy</text>
<rect x="524.5" y="300.4" width="69.0" height="29.6" fill="#F58518"/>
<text x="559.0" y="295.4" text-anchor="middle" font-family="Arial" font-size="11">0.257</text>
<text x="559.0" y="348" text-anchor="end" transform="rotate(-35 559.0,348)" font-family="Arial" font-size="11">near opt band clipping</text>
<rect x="649.9" y="297.3" width="69.0" height="32.7" fill="#E45756"/>
<text x="684.4" y="292.3" text-anchor="middle" font-family="Arial" font-size="11">0.283</text>
<text x="684.4" y="348" text-anchor="end" transform="rotate(-35 684.4,348)" font-family="Arial" font-size="11">calibrated risk proxy projection</text>
<rect x="775.4" y="217.9" width="69.0" height="112.1" fill="#54A24B"/>
<text x="809.9" y="212.9" text-anchor="middle" font-family="Arial" font-size="11">0.971</text>
<text x="809.9" y="348" text-anchor="end" transform="rotate(-35 809.9,348)" font-family="Arial" font-size="11">fixed 40us precommitted</text>
<rect x="900.8" y="79.6" width="69.0" height="250.4" fill="#B279A2"/>
<text x="935.3" y="74.6" text-anchor="middle" font-family="Arial" font-size="11">2.171</text>
<text x="935.3" y="348" text-anchor="end" transform="rotate(-35 935.3,348)" font-family="Arial" font-size="11">fixed 80us precommitted</text>
<text x="28" y="186.0" text-anchor="middle" transform="rotate(-90 28,186.0)" font-family="Arial" font-size="13">Mean switching regret</text>
</svg>