<svg xmlns="http://www.w3.org/2000/svg" width="980" height="620" viewBox="0 0 980 620">
<rect width="100%" height="100%" fill="white"/>
<style>text{font-family:Arial,"Microsoft YaHei",sans-serif;fill:#111} .axis{stroke:#111;stroke-width:1.4} .grid{stroke:#ddd;stroke-width:1} .thin{stroke:#555;stroke-width:1.2} .main{stroke:#1f4e79;stroke-width:2.4;fill:none} .alt{stroke:#a23b2a;stroke-width:2.4;fill:none} .green{stroke:#2d6a4f;stroke-width:2.4;fill:none} .dash{stroke-dasharray:6 4}</style>
<defs><marker id="arrow" markerWidth="10" markerHeight="8" refX="9" refY="4" orient="auto" markerUnits="strokeWidth"><path d="M0,0 L10,4 L0,8 Z" fill="#555"/></marker></defs>
<text x="490" y="42" font-size="23" text-anchor="middle" font-weight="bold">Multiphase modal decomposition and actuator channels</text>
<rect x="80" y="120" width="80" height="55" rx="8" fill="#eef5fb" stroke="#333" stroke-width="1.2" />
<text x="120" y="154" font-size="14" text-anchor="middle" font-weight="normal">phase 0</text>
<rect x="185" y="120" width="80" height="55" rx="8" fill="#eef5fb" stroke="#333" stroke-width="1.2" />
<text x="225" y="154" font-size="14" text-anchor="middle" font-weight="normal">phase 1</text>
<rect x="290" y="120" width="80" height="55" rx="8" fill="#eef5fb" stroke="#333" stroke-width="1.2" />
<text x="330" y="154" font-size="14" text-anchor="middle" font-weight="normal">phase 2</text>
<rect x="395" y="120" width="80" height="55" rx="8" fill="#eef5fb" stroke="#333" stroke-width="1.2" />
<text x="435" y="154" font-size="14" text-anchor="middle" font-weight="normal">phase 3</text>
<line x1="500" y1="148" x2="610" y2="148" class="thin" marker-end="url(#arrow)"/>
<text x="555" y="130" font-size="18" text-anchor="middle" font-weight="bold">DFT</text>
<rect x="650" y="102" width="250" height="70" rx="8" fill="#fff8e8" stroke="#333" stroke-width="1.2" />
<text x="775" y="132" font-size="15" text-anchor="middle" font-weight="bold">m=0 common mode</text>
<text x="775" y="155" font-size="13" text-anchor="middle" font-weight="normal">output, total-period jitter</text>
<rect x="650" y="198" width="250" height="70" rx="8" fill="#eef7ef" stroke="#333" stroke-width="1.2" />
<text x="775" y="228" font-size="15" text-anchor="middle" font-weight="bold">m=1,2,3 differential modes</text>
<text x="775" y="251" font-size="13" text-anchor="middle" font-weight="normal">phase spacing, ripple cancellation</text>
<rect x="120" y="365" width="210" height="90" rx="8" fill="#f6f6f6" stroke="#333" stroke-width="1.2" />
<text x="225" y="397" font-size="22" text-anchor="middle" font-weight="bold">Λcm</text>
<text x="225" y="425" font-size="15" text-anchor="middle" font-weight="normal">output regulation</text>
<rect x="385" y="365" width="210" height="90" rx="8" fill="#f6f6f6" stroke="#333" stroke-width="1.2" />
<text x="490" y="397" font-size="22" text-anchor="middle" font-weight="bold">Λdiff</text>
<text x="490" y="425" font-size="15" text-anchor="middle" font-weight="normal">phase-spacing actuator</text>
<rect x="650" y="365" width="210" height="90" rx="8" fill="#f6f6f6" stroke="#333" stroke-width="1.2" />
<text x="755" y="397" font-size="22" text-anchor="middle" font-weight="bold">Ton,diff</text>
<text x="755" y="425" font-size="15" text-anchor="middle" font-weight="normal">current-sharing actuator</text>
<text x="490" y="525" font-size="15" text-anchor="middle" font-weight="normal">Key separation: threshold differential offsets mainly move event spacing; on-time differential offsets set average phase current.</text>
</svg>