<svg xmlns="http://www.w3.org/2000/svg" width="1180" height="560" viewBox="0 0 1180 560">
<rect width="100%" height="100%" fill="white"/>
<text x="590" y="32" text-anchor="middle" font-family="Arial" font-size="18">R032 delay-aware band projection: known-context replay</text>
<line x1="90" y1="370" x2="670" y2="370" stroke="#333"/>
<line x1="90" y1="70" x2="90" y2="370" stroke="#333"/>
<line x1="86" y1="370.0" x2="670" y2="370.0" stroke="#eee"/>
<text x="80" y="374.0" text-anchor="end" font-family="Arial" font-size="11">0.00</text>
<line x1="86" y1="295.0" x2="670" y2="295.0" stroke="#eee"/>
<text x="80" y="299.0" text-anchor="end" font-family="Arial" font-size="11">0.33</text>
<line x1="86" y1="220.0" x2="670" y2="220.0" stroke="#eee"/>
<text x="80" y="224.0" text-anchor="end" font-family="Arial" font-size="11">0.66</text>
<line x1="86" y1="145.0" x2="670" y2="145.0" stroke="#eee"/>
<text x="80" y="149.0" text-anchor="end" font-family="Arial" font-size="11">1.00</text>
<line x1="86" y1="70.0" x2="670" y2="70.0" stroke="#eee"/>
<text x="80" y="74.0" text-anchor="end" font-family="Arial" font-size="11">1.33</text>
<rect x="115.0" y="370.0" width="66.0" height="0.0" fill="#54A24B"/>
<text x="148.0" y="364.0" text-anchor="middle" font-family="Arial" font-size="11">0.000</text>
<text x="148.0" y="390.0" text-anchor="end" transform="rotate(-35 148.0,390.0)" font-family="Arial" font-size="9">r032 delay aware band projection</text>
<rect x="231.0" y="337.7" width="66.0" height="32.3" fill="#F58518"/>
<text x="264.0" y="331.7" text-anchor="middle" font-family="Arial" font-size="11">0.143</text>
<text x="264.0" y="390.0" text-anchor="end" transform="rotate(-35 264.0,390.0)" font-family="Arial" font-size="9">r031 best intermediate only</text>
<rect x="347.0" y="293.8" width="66.0" height="76.2" fill="#4C78A8"/>
<text x="380.0" y="287.8" text-anchor="middle" font-family="Arial" font-size="11">0.337</text>
<text x="380.0" y="390.0" text-anchor="end" transform="rotate(-35 380.0,390.0)" font-family="Arial" font-size="9">dense fallback</text>
<rect x="463.0" y="237.0" width="66.0" height="133.0" fill="#B279A2"/>
<text x="496.0" y="231.0" text-anchor="middle" font-family="Arial" font-size="11">0.589</text>
<text x="496.0" y="390.0" text-anchor="end" transform="rotate(-35 496.0,390.0)" font-family="Arial" font-size="9">nearest tau loto predictor</text>
<rect x="579.0" y="120.0" width="66.0" height="250.0" fill="#E45756"/>
<text x="612.0" y="114.0" text-anchor="middle" font-family="Arial" font-size="11">1.107</text>
<text x="612.0" y="390.0" text-anchor="end" transform="rotate(-35 612.0,390.0)" font-family="Arial" font-size="9">direct proxy override</text>
<text x="28" y="220.0" text-anchor="middle" transform="rotate(-90 28,220.0)" font-family="Arial" font-size="13">Mean regret</text>
<text x="740" y="56" font-family="Arial" font-size="13">Candidate band decisions</text>
<rect x="740" y="86" width="112" height="28" fill="#E45756"/>
<text x="862" y="105" font-family="Arial" font-size="12">blocked: 8</text>
<rect x="740" y="148" width="280" height="28" fill="#F58518"/>
<text x="1030" y="167" font-family="Arial" font-size="12">candidate_only: 20</text>
<rect x="740" y="210" width="168" height="28" fill="#54A24B"/>
<text x="918" y="229" font-family="Arial" font-size="12">plant_admissible: 12</text>
<text x="740" y="340" font-family="Arial" font-size="12" fill="#555">R032 replay is fitted from R031 evidence.</text>
<text x="740" y="362" font-family="Arial" font-size="12" fill="#555">It is not hardware validation or global optimality proof.</text>
</svg>