<svg xmlns="http://www.w3.org/2000/svg" width="980" height="560" viewBox="0 0 980 560">
<rect width="100%" height="100%" fill="white"/>
<style>text{font-family:Arial,"Microsoft YaHei",sans-serif;fill:#111} .axis{stroke:#111;stroke-width:1.4} .grid{stroke:#ddd;stroke-width:1} .thin{stroke:#555;stroke-width:1.2} .main{stroke:#1f4e79;stroke-width:2.4;fill:none} .alt{stroke:#a23b2a;stroke-width:2.4;fill:none} .green{stroke:#2d6a4f;stroke-width:2.4;fill:none} .dash{stroke-dasharray:6 4}</style>
<line x1="90" y1="406" x2="450" y2="406" class="axis" />
<line x1="90" y1="76" x2="90" y2="406" class="axis" />
<text x="270.0" y="34" font-size="20" text-anchor="middle" font-weight="bold">Common-mode wait response</text>
<text x="90" y="61" font-size="14" text-anchor="start" font-weight="normal">amplitude (ns)</text>
<text x="270.0" y="454" font-size="16" text-anchor="middle" font-weight="normal">normalized frequency (ω/π)</text>
<line x1="90.0" y1="76" x2="90.0" y2="406" class="grid" />
<text x="90.0" y="430" font-size="13" text-anchor="middle" font-weight="normal">0.0</text>
<line x1="190.0" y1="76" x2="190.0" y2="406" class="grid" />
<text x="190.0" y="430" font-size="13" text-anchor="middle" font-weight="normal">0.2</text>
<line x1="290.0" y1="76" x2="290.0" y2="406" class="grid" />
<text x="290.0" y="430" font-size="13" text-anchor="middle" font-weight="normal">0.4</text>
<line x1="390.0" y1="76" x2="390.0" y2="406" class="grid" />
<text x="390.0" y="430" font-size="13" text-anchor="middle" font-weight="normal">0.6</text>
<line x1="90" y1="406.0" x2="450" y2="406.0" class="grid" />
<text x="80" y="410.0" font-size="13" text-anchor="end" font-weight="normal">0.0</text>
<line x1="90" y1="302.87631490726176" x2="450" y2="302.87631490726176" class="grid" />
<text x="80" y="306.87631490726176" font-size="13" text-anchor="end" font-weight="normal">0.1</text>
<line x1="90" y1="199.75262981452354" x2="450" y2="199.75262981452354" class="grid" />
<text x="80" y="203.75262981452354" font-size="13" text-anchor="end" font-weight="normal">0.2</text>
<line x1="90" y1="96.62894472178533" x2="450" y2="96.62894472178533" class="grid" />
<text x="80" y="100.62894472178533" font-size="13" text-anchor="end" font-weight="normal">0.3</text>
<polyline points="92.50,392.02 95.00,401.11 100.00,380.87 115.00,335.56 140.00,281.18 190.00,228.15 265.00,203.48 340.00,131.00 440.00,192.59" class="main" />
<polyline points="92.50,229.33 95.00,229.33 100.00,229.33 115.00,229.33 140.00,229.33 190.00,229.33 265.00,229.33 340.00,229.33 440.00,229.33" class="alt dash" />
<line x1="585" y1="406" x2="885" y2="406" class="axis" />
<line x1="585" y1="76" x2="585" y2="406" class="axis" />
<text x="735.0" y="34" font-size="20" text-anchor="middle" font-weight="bold">He-only amplitude error</text>
<text x="585" y="61" font-size="14" text-anchor="start" font-weight="normal">|error| (%)</text>
<text x="735.0" y="454" font-size="16" text-anchor="middle" font-weight="normal">normalized frequency (ω/π)</text>
<line x1="585.0" y1="76" x2="585.0" y2="406" class="grid" />
<text x="585.0" y="430" font-size="13" text-anchor="middle" font-weight="normal">0.0</text>
<line x1="668.3333333333334" y1="76" x2="668.3333333333334" y2="406" class="grid" />
<text x="668.3333333333334" y="430" font-size="13" text-anchor="middle" font-weight="normal">0.2</text>
<line x1="751.6666666666667" y1="76" x2="751.6666666666667" y2="406" class="grid" />
<text x="751.6666666666667" y="430" font-size="13" text-anchor="middle" font-weight="normal">0.4</text>
<line x1="835.0" y1="76" x2="835.0" y2="406" class="grid" />
<text x="835.0" y="430" font-size="13" text-anchor="middle" font-weight="normal">0.6</text>
<line x1="585" y1="406.0" x2="885" y2="406.0" class="grid" />
<text x="575" y="410.0" font-size="13" text-anchor="end" font-weight="normal">0</text>
<line x1="585" y1="320.5897999941615" x2="885" y2="320.5897999941615" class="grid" />
<text x="575" y="324.5897999941615" font-size="13" text-anchor="end" font-weight="normal">1000</text>
<line x1="585" y1="235.17959998832305" x2="885" y2="235.17959998832305" class="grid" />
<text x="575" y="239.17959998832305" font-size="13" text-anchor="end" font-weight="normal">2000</text>
<line x1="585" y1="149.76939998248463" x2="885" y2="149.76939998248463" class="grid" />
<text x="575" y="153.76939998248463" font-size="13" text-anchor="end" font-weight="normal">3000</text>
<polyline points="587.08,306.58 589.17,106.00 593.33,354.49 605.83,393.12 626.67,402.45 668.33,405.94 730.83,404.91 793.33,402.95 876.67,404.53" class="green" />
<text x="490" y="525" font-size="16" text-anchor="middle" font-weight="normal">The static He approximation misses the frequency-selective event memory of the four-phase system.</text>
</svg>