<svg xmlns="http://www.w3.org/2000/svg" width="1050" height="520" viewBox="0 0 1050 520">
<rect width="100%" height="100%" fill="white"/>
<text x="525" y="28" text-anchor="middle" font-family="Arial" font-size="18">R031 tightened B_epsilon^sw calibration prototype</text>
<line x1="95" y1="365" x2="615" y2="365" stroke="#333"/>
<line x1="95" y1="55" x2="95" y2="365" stroke="#333"/>
<line x1="91" y1="365.0" x2="615" y2="365.0" stroke="#eee"/>
<text x="85" y="369.0" text-anchor="end" font-family="Arial" font-size="11">0.00</text>
<line x1="91" y1="287.5" x2="615" y2="287.5" stroke="#eee"/>
<text x="85" y="291.5" text-anchor="end" font-family="Arial" font-size="11">0.17</text>
<line x1="91" y1="210.0" x2="615" y2="210.0" stroke="#eee"/>
<text x="85" y="214.0" text-anchor="end" font-family="Arial" font-size="11">0.34</text>
<line x1="91" y1="132.5" x2="615" y2="132.5" stroke="#eee"/>
<text x="85" y="136.5" text-anchor="end" font-family="Arial" font-size="11">0.51</text>
<line x1="91" y1="55.0" x2="615" y2="55.0" stroke="#eee"/>
<text x="85" y="59.0" text-anchor="end" font-family="Arial" font-size="11">0.68</text>
<rect x="115.0" y="365.0" width="64.0" height="0.0" fill="#72B7B2"/>
<text x="147.0" y="359.0" text-anchor="middle" font-family="Arial" font-size="11">0.000</text>
<text x="147.0" y="385" text-anchor="end" transform="rotate(-35 147.0,385)" font-family="Arial" font-size="10">pair oracle upper bound</text>
<rect x="219.0" y="304.5" width="64.0" height="60.5" fill="#54A24B"/>
<text x="251.0" y="298.5" text-anchor="middle" font-family="Arial" font-size="11">0.132</text>
<text x="251.0" y="385" text-anchor="end" transform="rotate(-35 251.0,385)" font-family="Arial" font-size="10">tightened sw projection</text>
<rect x="323.0" y="280.0" width="64.0" height="85.0" fill="#4C78A8"/>
<text x="355.0" y="274.0" text-anchor="middle" font-family="Arial" font-size="11">0.186</text>
<text x="355.0" y="385" text-anchor="end" transform="rotate(-35 355.0,385)" font-family="Arial" font-size="10">dense anchor baseline</text>
<rect x="427.0" y="278.6" width="64.0" height="86.4" fill="#F58518"/>
<text x="459.0" y="272.6" text-anchor="middle" font-family="Arial" font-size="11">0.189</text>
<text x="459.0" y="385" text-anchor="end" transform="rotate(-35 459.0,385)" font-family="Arial" font-size="10">small delta only</text>
<rect x="531.0" y="102.3" width="64.0" height="262.7" fill="#E45756"/>
<text x="563.0" y="96.3" text-anchor="middle" font-family="Arial" font-size="11">0.574</text>
<text x="563.0" y="385" text-anchor="end" transform="rotate(-35 563.0,385)" font-family="Arial" font-size="10">direct proxy override</text>
<text x="25" y="210.0" text-anchor="middle" transform="rotate(-90 25,210.0)" font-family="Arial" font-size="13">Mean regret on R030 challenge contexts</text>
<text x="825" y="55" text-anchor="middle" font-family="Arial" font-size="14">R031 rule categories</text>
<rect x="665" y="58" width="20" height="20" fill="#72B7B2"/>
<text x="695" y="73" font-family="Arial" font-size="12" font-weight="bold">10A / score_settle010</text>
<text x="695" y="94" font-family="Arial" font-size="11">near_tie_delay_sensitive</text>
<text x="695" y="114" font-family="Arial" font-size="10" fill="#555">proxy wins 3, dense wins 2, mean Δ=0.009</text>
<rect x="665" y="153" width="20" height="20" fill="#F58518"/>
<text x="695" y="168" font-family="Arial" font-size="12" font-weight="bold">20A / base</text>
<text x="695" y="189" font-family="Arial" font-size="11">small_gain_delay_sensitive</text>
<text x="695" y="209" font-family="Arial" font-size="10" fill="#555">proxy wins 2, dense wins 3, mean Δ=0.082</text>
<rect x="665" y="248" width="20" height="20" fill="#E45756"/>
<text x="695" y="263" font-family="Arial" font-size="12" font-weight="bold">20A / score_settle005</text>
<text x="695" y="284" font-family="Arial" font-size="11">large_jump_settling_sensitive_negative_sample</text>
<text x="695" y="304" font-family="Arial" font-size="10" fill="#555">proxy wins 2, dense wins 3, mean Δ=1.073</text>
</svg>