<svg xmlns="http://www.w3.org/2000/svg" width="1180" height="540" viewBox="0 0 1180 540">
<rect width="100%" height="100%" fill="white"/>
<text x="590" y="32" text-anchor="middle" font-family="Arial" font-size="18">R031 minimal held-out derived-Simulink validation</text>
<rect x="80" y="70" width="610" height="300" fill="#fbfbfb" stroke="#ddd"/>
<line x1="80" y1="220.0" x2="690" y2="220.0" stroke="#333" stroke-width="1"/>
<text x="80" y="52" font-family="Arial" font-size="13">R031 best candidate minus dense score (negative is better)</text>
<line x1="76" y1="370.0" x2="690" y2="370.0" stroke="#eee"/>
<text x="70" y="374.0" text-anchor="end" font-family="Arial" font-size="10">-2.92</text>
<line x1="76" y1="295.0" x2="690" y2="295.0" stroke="#eee"/>
<text x="70" y="299.0" text-anchor="end" font-family="Arial" font-size="10">-1.46</text>
<line x1="76" y1="220.0" x2="690" y2="220.0" stroke="#eee"/>
<text x="70" y="224.0" text-anchor="end" font-family="Arial" font-size="10">0.00</text>
<line x1="76" y1="145.0" x2="690" y2="145.0" stroke="#eee"/>
<text x="70" y="149.0" text-anchor="end" font-family="Arial" font-size="10">1.46</text>
<line x1="76" y1="70.0" x2="690" y2="70.0" stroke="#eee"/>
<text x="70" y="74.0" text-anchor="end" font-family="Arial" font-size="10">2.92</text>
<rect x="92.9" y="192.7" width="42.0" height="27.3" fill="#E45756"/>
<text x="113.9" y="187.7" text-anchor="middle" font-family="Arial" font-size="9">0.53</text>
<text x="113.9" y="390.0" text-anchor="end" transform="rotate(-45 113.9,390.0)" font-family="Arial" font-size="9">10A/settle010/τ=1</text>
<rect x="160.7" y="220.0" width="42.0" height="9.3" fill="#54A24B"/>
<text x="181.7" y="242.3" text-anchor="middle" font-family="Arial" font-size="9">-0.18</text>
<text x="181.7" y="390.0" text-anchor="end" transform="rotate(-45 181.7,390.0)" font-family="Arial" font-size="9">10A/settle010/τ=5</text>
<rect x="228.4" y="214.1" width="42.0" height="5.9" fill="#E45756"/>
<text x="249.4" y="209.1" text-anchor="middle" font-family="Arial" font-size="9">0.12</text>
<text x="249.4" y="390.0" text-anchor="end" transform="rotate(-45 249.4,390.0)" font-family="Arial" font-size="9">20A/base/τ=0.5</text>
<rect x="296.2" y="209.4" width="42.0" height="10.6" fill="#E45756"/>
<text x="317.2" y="204.4" text-anchor="middle" font-family="Arial" font-size="9">0.21</text>
<text x="317.2" y="390.0" text-anchor="end" transform="rotate(-45 317.2,390.0)" font-family="Arial" font-size="9">20A/base/τ=2</text>
<rect x="364.0" y="219.9" width="42.0" height="0.1" fill="#E45756"/>
<text x="385.0" y="214.9" text-anchor="middle" font-family="Arial" font-size="9">0.00</text>
<text x="385.0" y="390.0" text-anchor="end" transform="rotate(-45 385.0,390.0)" font-family="Arial" font-size="9">20A/base/τ=5</text>
<rect x="431.8" y="220.0" width="42.0" height="26.5" fill="#54A24B"/>
<text x="452.8" y="259.5" text-anchor="middle" font-family="Arial" font-size="9">-0.52</text>
<text x="452.8" y="390.0" text-anchor="end" transform="rotate(-45 452.8,390.0)" font-family="Arial" font-size="9">20A/settle005/τ=0.5</text>
<rect x="499.6" y="220.0" width="42.0" height="120.0" fill="#54A24B"/>
<text x="520.6" y="353.0" text-anchor="middle" font-family="Arial" font-size="9">-2.34</text>
<text x="520.6" y="390.0" text-anchor="end" transform="rotate(-45 520.6,390.0)" font-family="Arial" font-size="9">20A/settle005/τ=1</text>
<rect x="567.3" y="209.3" width="42.0" height="10.7" fill="#E45756"/>
<text x="588.3" y="204.3" text-anchor="middle" font-family="Arial" font-size="9">0.21</text>
<text x="588.3" y="390.0" text-anchor="end" transform="rotate(-45 588.3,390.0)" font-family="Arial" font-size="9">20A/settle005/τ=2</text>
<rect x="635.1" y="208.6" width="42.0" height="11.4" fill="#E45756"/>
<text x="656.1" y="203.6" text-anchor="middle" font-family="Arial" font-size="9">0.22</text>
<text x="656.1" y="390.0" text-anchor="end" transform="rotate(-45 656.1,390.0)" font-family="Arial" font-size="9">20A/settle005/τ=5</text>
<text x="760" y="60" font-family="Arial" font-size="13">Family mean context regret</text>
<rect x="760" y="88" width="330" height="230" fill="#fbfbfb" stroke="#ddd"/>
<rect x="784.0" y="243.2" width="60.5" height="50.8" fill="#4C78A8"/>
<text x="814.2" y="237.2" text-anchor="middle" font-family="Arial" font-size="10">0.337</text>
<text x="814.2" y="338.0" text-anchor="end" transform="rotate(-35 814.2,338.0)" font-family="Arial" font-size="9">dense baseline</text>
<rect x="894.0" y="220.1" width="60.5" height="73.9" fill="#4C78A8"/>
<text x="924.2" y="214.1" text-anchor="middle" font-family="Arial" font-size="10">0.490</text>
<text x="924.2" y="338.0" text-anchor="end" transform="rotate(-35 924.2,338.0)" font-family="Arial" font-size="9">intermediate candidate</text>
<rect x="1004.0" y="127.3" width="60.5" height="166.7" fill="#4C78A8"/>
<text x="1034.2" y="121.3" text-anchor="middle" font-family="Arial" font-size="10">1.107</text>
<text x="1034.2" y="338.0" text-anchor="end" transform="rotate(-35 1034.2,338.0)" font-family="Arial" font-size="9">original proxy</text>
</svg>